<svg xmlns="http://www.w3.org/2000/svg" xmlns:xlink="http://www.w3.org/1999/xlink" viewBox="0 0 379.37 767.42"><defs><style>.cls-1,.cls-77,.cls-78{fill:none;}.cls-2,.cls-4,.cls-47,.cls-5,.cls-50,.cls-54,.cls-60,.cls-66,.cls-72{fill:#fff;}.cls-2,.cls-4,.cls-5{stroke:#dadada;}.cls-2,.cls-4,.cls-5,.cls-6,.cls-77,.cls-78{stroke-miterlimit:10;}.cls-2{stroke-width:1.73px;}.cls-3{clip-path:url(#clip-path);}.cls-4{stroke-width:1.12px;}.cls-5,.cls-6{stroke-width:0.56px;}.cls-6{fill:#f8fafb;stroke:#ededed;}.cls-7{font-size:12.27px;}.cls-13,.cls-36,.cls-7{fill:#213443;}.cls-16,.cls-36,.cls-40,.cls-7{font-family:SourceSansPro-Regular, SourceSansPro Regular;}.cls-8{letter-spacing:-0.01em;}.cls-9{letter-spacing:-0.01em;}.cls-10{letter-spacing:-0.01em;}.cls-11{letter-spacing:0em;}.cls-12{letter-spacing:-0.01em;}.cls-13{font-size:18.03px;}.cls-13,.cls-72{font-family:SourceSansPro-Bold, SourceSansPro Bold;font-weight:700;}.cls-14{letter-spacing:-0.01em;}.cls-15{letter-spacing:0em;}.cls-16{font-size:11.42px;fill:#009fe3;}.cls-17{letter-spacing:0em;}.cls-18{letter-spacing:0em;}.cls-19{letter-spacing:0em;}.cls-20{letter-spacing:-0.01em;}.cls-21{letter-spacing:-0.05em;}.cls-22{letter-spacing:0em;}.cls-23{letter-spacing:0.01em;}.cls-24{letter-spacing:-0.01em;}.cls-25{letter-spacing:-0.01em;}.cls-26{letter-spacing:0em;}.cls-27{letter-spacing:-0.01em;}.cls-28{letter-spacing:0em;}.cls-29{letter-spacing:-0.01em;}.cls-30{letter-spacing:0em;}.cls-31{letter-spacing:-0.01em;}.cls-32{letter-spacing:-0.02em;}.cls-33{letter-spacing:-0.01em;}.cls-34{letter-spacing:-0.01em;}.cls-35{fill:#da0405;}.cls-36{font-size:12.33px;}.cls-37{letter-spacing:0em;}.cls-38{letter-spacing:-0.01em;}.cls-39{letter-spacing:0em;}.cls-40{font-size:12.22px;fill:#b9b9b9;}.cls-41{letter-spacing:0em;}.cls-42{letter-spacing:-0.01em;}.cls-43{letter-spacing:0em;}.cls-44{letter-spacing:-0.01em;}.cls-45{letter-spacing:-0.01em;}.cls-46{fill:#ff804f;}.cls-48{fill:#9d9d9c;}.cls-49{fill:#6e00ff;}.cls-50{font-size:11.31px;font-family:FranklinGothic-Demi, Franklin Gothic Demi;font-weight:300;letter-spacing:0.12em;}.cls-51{letter-spacing:0.1em;}.cls-52{letter-spacing:0.12em;}.cls-53{letter-spacing:-0.14em;}.cls-54{font-size:4.06px;font-family:KoHo-Regular, KoHo Regular;letter-spacing:0.12em;}.cls-55{letter-spacing:0.11em;}.cls-56{letter-spacing:0.12em;}.cls-57{letter-spacing:0.09em;}.cls-58{letter-spacing:0.12em;}.cls-59{letter-spacing:0.1em;}.cls-60{font-size:19.72px;}.cls-60,.cls-66{font-family:SourceSansPro-SemiBold, SourceSansPro SemiBold;font-weight:600;}.cls-61{letter-spacing:0em;}.cls-62{letter-spacing:-0.01em;}.cls-63{letter-spacing:0em;}.cls-64{letter-spacing:0em;}.cls-65{letter-spacing:-0.01em;}.cls-66{font-size:11.95px;}.cls-67{letter-spacing:0em;}.cls-68{letter-spacing:0em;}.cls-69,.cls-70,.cls-71{font-family:SourceSansPro-Black, SourceSansPro Black;font-weight:800;}.cls-69{letter-spacing:-0.03em;}.cls-71{letter-spacing:-0.01em;}.cls-72{font-size:10.79px;}.cls-73{letter-spacing:0em;}.cls-74{letter-spacing:0em;}.cls-75{letter-spacing:0.03em;}.cls-76{letter-spacing:0em;}.cls-77{stroke:#fff;stroke-width:0.92px;}.cls-78{stroke:#c6c6c6;stroke-width:2.04px;}</style><clipPath id="clip-path"><rect class="cls-1" x="24.54" y="16.46" width="330.29" height="728.56" rx="23.39"/></clipPath></defs><title>Ativo 1</title><g id="Camada_2" data-name="Camada 2"><g id="Camada_1-2" data-name="Camada 1"><path class="cls-2" d="M378.5,179.66h-3.84V49.35A48.62,48.62,0,0,0,326.17.87H54.33A48.61,48.61,0,0,0,5.85,49.35V99.61h-5v32h5v29.51h-5v55.56h5V232h-5v55.57h5V718.07a48.62,48.62,0,0,0,48.48,48.48H326.17a48.63,48.63,0,0,0,48.49-48.48V264.41h3.84Z"/><g class="cls-3"><rect class="cls-4" x="34.68" y="249.13" width="310.32" height="482.67" rx="3.07"/><rect class="cls-5" x="48.67" y="443.76" width="282.03" height="35.06" rx="2.79"/><rect class="cls-5" x="48.67" y="526.43" width="282.03" height="126.4" rx="2.79"/><rect class="cls-6" x="48.67" y="340.04" width="282.03" height="35.06" rx="2.79"/><text class="cls-7" transform="translate(48.76 393.09)"><tspan class="cls-8">A</tspan><tspan x="7.36" y="0">dicionar </tspan><tspan class="cls-9" x="51.6" y="0">C</tspan><tspan x="58.59" y="0">c</tspan></text><text class="cls-7" transform="translate(48.76 435.53)"><tspan class="cls-10">A</tspan><tspan x="7.44" y="0">ssu</tspan><tspan class="cls-11" x="23.92" y="0">n</tspan><tspan class="cls-12" x="30.68" y="0">t</tspan><tspan x="34.67" y="0">o</tspan></text><text class="cls-13" transform="translate(48.76 290.06)">E<tspan class="cls-14" x="8.87" y="0">n</tspan><tspan x="18.64" y="0">viar um ticket</tspan></text><text class="cls-7" transform="translate(48.76 517.31)"><tspan class="cls-15">D</tspan><tspan x="8.22" y="0">esc</tspan><tspan class="cls-15" x="24.73" y="0">r</tspan><tspan x="28.79" y="0">ição</tspan></text><text class="cls-16" transform="translate(59.11 682.67)">+ <tspan class="cls-17" x="9.23" y="0">A</tspan><tspan x="16.19" y="0">n</tspan><tspan class="cls-18" x="22.53" y="0">e</tspan><tspan class="cls-19" x="28.22" y="0">xar a</tspan><tspan class="cls-20" x="50.68" y="0">r</tspan><tspan x="54.3" y="0">qui</tspan><tspan class="cls-20" x="69.7" y="0">v</tspan><tspan x="75.08" y="0">o</tspan></text><text class="cls-7" transform="translate(52.86 540.3)">Olá D<tspan class="cls-21" x="28.04" y="0">r</tspan><tspan x="31.4" y="0">,</tspan><tspan x="0" y="36.41">Na última s</tspan><tspan class="cls-22" x="56.8" y="36.41">e</tspan><tspan class="cls-23" x="62.91" y="36.41">x</tspan><tspan x="68.75" y="36.41">ta </tspan><tspan class="cls-24" x="81.33" y="36.41">f</tspan><tspan x="84.75" y="36.41">ei</tspan><tspan class="cls-25" x="93.77" y="36.41">r</tspan><tspan class="cls-26" x="97.72" y="36.41">a </tspan><tspan class="cls-27" x="106.24" y="36.41">r</tspan><tspan x="110.13" y="36.41">e</tspan><tspan class="cls-10" x="116.28" y="36.41">c</tspan><tspan x="121.7" y="36.41">ebi uma i</tspan><tspan class="cls-28" x="168.69" y="36.41">n</tspan><tspan x="175.46" y="36.41">timação à</tspan><tspan class="cls-10" x="0" y="52.94">c</tspan><tspan class="cls-26" x="5.42" y="52.94">ompa</tspan><tspan class="cls-29" x="35.29" y="52.94">r</tspan><tspan x="39.19" y="52.94">e</tspan><tspan class="cls-10" x="45.33" y="52.94">c</tspan><tspan x="50.76" y="52.94">er em uma audiência de </tspan><tspan class="cls-10" x="176.01" y="52.94">c</tspan><tspan x="181.43" y="52.94">onciliação e no</tspan><tspan x="0" y="69.47">mesmo p</tspan><tspan class="cls-30" x="47.8" y="69.47">r</tspan><tspan x="51.75" y="69.47">a</tspan><tspan class="cls-31" x="57.67" y="69.47">z</tspan><tspan class="cls-32" x="62.83" y="69.47">o</tspan><tspan x="69.28" y="69.47">, de</tspan><tspan class="cls-29" x="87.49" y="69.47">v</tspan><tspan x="93.27" y="69.47">e</tspan><tspan class="cls-15" x="99.42" y="69.47">r</tspan><tspan x="103.48" y="69.47">ia ap</tspan><tspan class="cls-27" x="127.77" y="69.47">r</tspan><tspan x="131.66" y="69.47">ese</tspan><tspan class="cls-11" x="148.81" y="69.47">n</tspan><tspan class="cls-26" x="155.58" y="69.47">tar a minha de</tspan><tspan class="cls-24" x="229" y="69.47">f</tspan><tspan x="232.42" y="69.47">esa.</tspan><tspan x="0" y="99.17">Es</tspan><tspan class="cls-12" x="10.9" y="99.17">t</tspan><tspan x="14.89" y="99.17">ou encaminhando em an</tspan><tspan class="cls-22" x="142.79" y="99.17">e</tspan><tspan class="cls-33" x="148.9" y="99.17">x</tspan><tspan x="154.4" y="99.17">o pa</tspan><tspan class="cls-25" x="176.63" y="99.17">r</tspan><tspan x="180.59" y="99.17">a anális</tspan><tspan class="cls-34" x="218.37" y="99.17">e</tspan><tspan class="cls-26" x="224.37" y="99.17">.</tspan></text><path class="cls-35" d="M96.5,434.05l-.91-.66.78-1.4-1.46-.68.35-1.08,1.58.31L97,429h1.15l.18,1.6,1.58-.32.35,1.08-1.47.68.8,1.4-.92.66-1.09-1.19Z"/><text class="cls-36" transform="translate(52.86 465.83)"><tspan class="cls-37">R</tspan><tspan x="6.68" y="0">e</tspan><tspan class="cls-38" x="12.86" y="0">c</tspan><tspan x="18.31" y="0">ebi uma i</tspan><tspan class="cls-39" x="65.52" y="0">n</tspan><tspan x="72.32" y="0">timação de audiência</tspan></text><text class="cls-40" transform="translate(54.61 361.53)">usua<tspan class="cls-41" x="24.19" y="0">r</tspan><tspan x="28.24" y="0">io@</tspan><tspan class="cls-42" x="46.81" y="0">g</tspan><tspan class="cls-43" x="53.56" y="0">mai</tspan><tspan class="cls-44" x="72.5" y="0">l</tspan><tspan x="75.26" y="0">.</tspan><tspan class="cls-45" x="77.79" y="0">c</tspan><tspan x="83.19" y="0">om</tspan></text><path class="cls-46" d="M332.75,666.9H312.46v0a24.23,24.23,0,1,0,25.44,24.19V672.05A5.15,5.15,0,0,0,332.75,666.9Z"/><path class="cls-47" d="M317.83,684.08h-8.31a5.23,5.23,0,0,0-5.22,5.23v8.85h13.53a5.23,5.23,0,0,0,5.23-5.23v-3.62A5.23,5.23,0,0,0,317.83,684.08ZM314.94,694h-6.25a1.06,1.06,0,1,1,0-2.11h6.25a1.06,1.06,0,1,1,0,2.11Zm3.73-4.06h-10a1.06,1.06,0,1,1,0-2.11h10a1.06,1.06,0,0,1,0,2.11Z"/><path class="cls-48" d="M341.17,190.59H325a1.21,1.21,0,0,1-1.2-1.21h0a1.2,1.2,0,0,1,1.2-1.2h16.18a1.21,1.21,0,0,1,1.21,1.2h0A1.21,1.21,0,0,1,341.17,190.59Z"/><path class="cls-48" d="M341.17,197.67H325a1.2,1.2,0,0,1-1.2-1.2h0a1.2,1.2,0,0,1,1.2-1.2h16.18a1.21,1.21,0,0,1,1.21,1.2h0A1.21,1.21,0,0,1,341.17,197.67Z"/><path class="cls-48" d="M341.17,204.75H325a1.2,1.2,0,0,1-1.2-1.2h0a1.2,1.2,0,0,1,1.2-1.2h16.18a1.21,1.21,0,0,1,1.21,1.2h0A1.21,1.21,0,0,1,341.17,204.75Z"/><path class="cls-48" d="M329.83,650.16l-1.51,1.51a.41.41,0,0,1-.58,0h0a.41.41,0,0,1,0-.58l1.51-1.52a.41.41,0,0,1,.58,0h0A.42.42,0,0,1,329.83,650.16Z"/><path class="cls-48" d="M329.61,648.32l-3.13,3.13a.61.61,0,0,1-.85,0h0a.6.6,0,0,1,0-.84l3.14-3.14a.6.6,0,0,1,.84,0h0A.61.61,0,0,1,329.61,648.32Z"/><rect class="cls-49" x="24.54" y="16.46" width="330.29" height="147.75"/><polygon class="cls-47" points="59.51 27.86 57.98 25.91 56.46 27.87 54.5 25.91 54.94 30.27 61.03 30.26 61.47 25.9 59.51 27.86"/><path class="cls-47" d="M47.82,33.39c0-2.32,0-4,0-4h5.61l-.17-1.72H46.15l0,1.7s0,1.42,0,3.42C46.68,33,47.26,33.22,47.82,33.39Z"/><path class="cls-47" d="M68.15,33.39c.56-.17,1.14-.35,1.72-.56,0-2,0-3.38,0-3.42l0-1.7h-7.1l-.17,1.72h5.56S68.13,31.07,68.15,33.39Z"/><path class="cls-47" d="M68.3,44.6l-.09,0c-.08,2-.53,5.37-2.6,7.55A27.81,27.81,0,0,1,58,57.62a28.12,28.12,0,0,1-7.63-5.42c-2.06-2.18-2.52-5.57-2.6-7.55l-.08,0L46,43.68c0,1.86.2,6.67,3.08,9.7a29.93,29.93,0,0,0,8.14,5.81l.74.35.74-.35a29.69,29.69,0,0,0,8.14-5.81c2.88-3,3.12-7.84,3.09-9.7Z"/><path class="cls-47" d="M67,37a24.83,24.83,0,0,0,6.54-1.35c1.59-1.2,2-4.05,2-4.05-4.69,3.16-12.12,4.26-12.12,4.26a4.39,4.39,0,0,1-3.25,3.74h0a7.16,7.16,0,0,1-.64-3,1,1,0,0,1,.78,0,1.42,1.42,0,0,0-.28-.83c-.27-.26-1-.14-1-.14a1.88,1.88,0,0,0-1.36-.2.74.74,0,0,0-.63.5l-1.14,3.67a4.4,4.4,0,0,1-3.33-3.76s-7.42-1.1-12.11-4.26c0,0,.42,2.85,2,4.05A24.72,24.72,0,0,0,49,37a33.79,33.79,0,0,1-7-.41s.8,2.29,2.4,3c0,0,4.38.13,5.56-.26a17.66,17.66,0,0,1-5.82,1.15,5.8,5.8,0,0,0,3.56,2.17A9.63,9.63,0,0,0,51.62,41a11.79,11.79,0,0,1-3.34,2.61,6.18,6.18,0,0,0,3.47.77,6.5,6.5,0,0,0,1.72-1.49,7.7,7.7,0,0,1-1.78,2.38s1.91.36,2.42-.12a5.4,5.4,0,0,0,.7-1.75,4.7,4.7,0,0,1-.61,2.09,1.29,1.29,0,0,0,1.31-.31s-.56,1.31-1.28,1.58a.68.68,0,0,0,.71,0,.7.7,0,0,0-.26.54h.09l-.4.71a1.79,1.79,0,0,0-.87-.45.79.79,0,0,0-.54.68s.35-.44.54-.47A.89.89,0,0,1,54,48a.94.94,0,0,0-.52.42,2.38,2.38,0,0,0,0,.74,2.11,2.11,0,0,1,.19-.71.83.83,0,0,1,.67-.23,4.12,4.12,0,0,1,.29.42,2.59,2.59,0,0,1,0,.52,2.44,2.44,0,0,0,.2-.55,1.21,1.21,0,0,0-.28-.54l.51-.87a.62.62,0,0,0,.26-.27.77.77,0,0,0,.24.67s.11-.89.61-1.13c0,0-.44,3-2.24,4.43a2,2,0,0,0,2-.71,4.82,4.82,0,0,0,0,2.29,3.25,3.25,0,0,0,1.31-2s.05,2.56.76,3.34h0c.72-.78.77-3.34.77-3.34a3.2,3.2,0,0,0,1.31,2,5,5,0,0,0,0-2.29,2,2,0,0,0,2,.71c-1.81-1.42-2.24-4.43-2.24-4.43.5.24.61,1.13.61,1.13a.77.77,0,0,0,.24-.67.66.66,0,0,0,.25.27l.52.87a1.21,1.21,0,0,0-.28.54,2,2,0,0,0,.2.55,2,2,0,0,1,0-.52,4.31,4.31,0,0,1,.28-.42.82.82,0,0,1,.67.23,2,2,0,0,1,.2.71,2.38,2.38,0,0,0,0-.74.94.94,0,0,0-.52-.42.87.87,0,0,1,.52-.25c.19,0,.55.47.55.47a.79.79,0,0,0-.55-.68,1.85,1.85,0,0,0-.87.45l-.4-.71h.1a.7.7,0,0,0-.26-.54.66.66,0,0,0,.7,0c-.72-.27-1.27-1.58-1.27-1.58a1.27,1.27,0,0,0,1.3.31,4.77,4.77,0,0,1-.6-2.09,5.16,5.16,0,0,0,.7,1.75c.51.48,2.41.12,2.41.12a7.57,7.57,0,0,1-1.77-2.38,6.35,6.35,0,0,0,1.72,1.49,6.18,6.18,0,0,0,3.47-.77A11.62,11.62,0,0,1,64.35,41a9.62,9.62,0,0,0,3.93,1.63,5.84,5.84,0,0,0,3.57-2.17A17.66,17.66,0,0,1,66,39.28c1.18.39,5.56.26,5.56.26,1.59-.67,2.39-3,2.39-3A33.68,33.68,0,0,1,67,37Zm-8.78-1.15a1.09,1.09,0,0,1-.36-.17,1.68,1.68,0,0,1,.38,0,.63.63,0,0,1,.35.2Z"/><text class="cls-50" transform="translate(77.92 44.1)">HERMI<tspan class="cls-51" x="40.99" y="0">D</tspan><tspan class="cls-52" x="49.43" y="0">A</tspan><tspan class="cls-53" x="57.66" y="0"> </tspan><tspan x="58.9" y="0">MAIA</tspan></text><text class="cls-54" transform="translate(81.1 50.05)">SOCIE<tspan class="cls-55" x="12.55" y="0">D</tspan><tspan class="cls-56" x="15.69" y="0">ADE INDIVID</tspan><tspan class="cls-57" x="42.34" y="0">U</tspan><tspan class="cls-56" x="45.32" y="0">AL DE ADVO</tspan><tspan class="cls-58" x="71.26" y="0">C</tspan><tspan class="cls-59" x="74.12" y="0">A</tspan><tspan x="77.03" y="0">CIA</tspan></text><text class="cls-60" transform="translate(42.99 90.34)">Esc<tspan class="cls-61" x="26.35" y="0">r</tspan><tspan x="32.87" y="0">i</tspan><tspan class="cls-62" x="37.49" y="0">t</tspan><tspan class="cls-63" x="43.9" y="0">ó</tspan><tspan class="cls-64" x="54.72" y="0">r</tspan><tspan x="61.25" y="0">io Ju</tspan><tspan class="cls-61" x="99.03" y="0">r</tspan><tspan x="105.56" y="0">ídi</tspan><tspan class="cls-65" x="125.91" y="0">c</tspan><tspan x="134.62" y="0">o Online</tspan></text><text class="cls-66" transform="translate(42.99 118.91)"><tspan class="cls-67">B</tspan><tspan x="6.52" y="0">em</tspan><tspan class="cls-68" x="22.47" y="0">-</tspan><tspan x="26.08" y="0">vindo(a) </tspan><tspan class="cls-69" x="69.63" y="0">P</tspan><tspan class="cls-70" x="75.67" y="0">aulo </tspan><tspan class="cls-71" x="99.92" y="0">C</tspan><tspan class="cls-70" x="106.72" y="0">ésar</tspan></text><text class="cls-72" transform="translate(52.86 148.43)"><tspan class="cls-73">E</tspan><tspan class="cls-74" x="5.26" y="0">ditar pe</tspan><tspan class="cls-75" x="39.99" y="0">r</tspan><tspan x="43.84" y="0">fil</tspan></text><text class="cls-72" transform="translate(134.35 148.43)"><tspan class="cls-76">S</tspan><tspan x="5.35" y="0">air</tspan></text><rect class="cls-77" x="44.33" y="135.86" width="74.31" height="20.64" rx="3.21"/><rect class="cls-77" x="125.46" y="135.86" width="37.16" height="20.64" rx="3.21"/></g><rect class="cls-78" x="24.54" y="16.46" width="330.29" height="728.56" rx="23.39"/></g></g></svg>